<svg xmlns="http://www.w3.org/2000/svg" width="104" height="104" fill="none">
  <g clip-path="url(#a)">
    <path fill="#000" fill-opacity=".64" d="M26.02 7a51.962 51.962 0 1 1 51.96 90A51.962 51.962 0 0 1 26.02 7Z"/>
    <path fill="url(#b)" fill-opacity=".15" d="M26.02 7a51.962 51.962 0 1 1 51.96 90A51.962 51.962 0 0 1 26.02 7Z"/>
    <path fill="#000" fill-opacity=".5" d="M26.02 7a51.962 51.962 0 1 1 51.96 90A51.962 51.962 0 0 1 26.02 7Z"/>
    <path stroke="url(#c)" stroke-opacity=".15" d="M.538 52a51.462 51.462 0 1 1 102.924 0A51.462 51.462 0 0 1 .538 52Z"/>
    <path stroke="url(#d)" stroke-opacity=".5" d="M.538 52a51.462 51.462 0 1 1 102.924 0A51.462 51.462 0 0 1 .538 52Z"/>
    <path fill="#fff" d="M51.888 37.926c-7.699 0-13.962 6.264-13.962 13.962 0 7.699 6.263 13.962 13.962 13.962 7.698 0 13.962-6.263 13.962-13.962 0-7.698-6.264-13.962-13.962-13.962Zm0 21.188a7.225 7.225 0 0 1-7.226-7.226 7.225 7.225 0 0 1 7.226-7.225 7.225 7.225 0 0 1 7.225 7.225 7.225 7.225 0 0 1-7.225 7.226Z"/>
    <path fill="url(#e)" fill-rule="evenodd" d="M53.058 35.633V30.42c11.33.606 20.332 9.987 20.332 21.468 0 11.482-9.001 20.86-20.332 21.468v-5.213c8.445-.603 15.132-7.66 15.132-16.255 0-8.595-6.687-15.652-15.132-16.255ZM39.575 62.548a16.234 16.234 0 0 1-3.94-9.49H30.42a21.409 21.409 0 0 0 5.462 13.18l3.69-3.69h.002Zm11.143 10.808v-5.213a16.218 16.218 0 0 1-9.492-3.939l-3.69 3.69a21.407 21.407 0 0 0 13.18 5.462h.002Z" clip-rule="evenodd"/>
  </g>
  <defs>
    <linearGradient id="b" x1="52" x2="52" y1="-8" y2="112" gradientUnits="userSpaceOnUse">
      <stop stop-color="#3286F1"/>
      <stop offset="1" stop-color="#C43AC4"/>
    </linearGradient>
    <linearGradient id="d" x1="-8" x2="18.25" y1="-8" y2="40.75" gradientUnits="userSpaceOnUse">
      <stop stop-color="#fff"/>
      <stop offset="1" stop-color="#fff" stop-opacity="0"/>
    </linearGradient>
    <linearGradient id="e" x1="53.901" x2="32.768" y1="33.439" y2="54.572" gradientUnits="userSpaceOnUse">
      <stop stop-color="#0096FF"/>
      <stop offset="1" stop-color="#FF1E56"/>
    </linearGradient>
    <radialGradient id="c" cx="0" cy="0" r="1" gradientTransform="rotate(90 30 22) scale(154.286)" gradientUnits="userSpaceOnUse">
      <stop stop-color="#fff"/>
      <stop offset="1" stop-color="#fff"/>
    </radialGradient>
    <clipPath id="a">
      <path fill="#fff" d="M0 0h104v104H0z"/>
    </clipPath>
  </defs>
</svg>